%TF.GenerationSoftware,KiCad,Pcbnew,(6.0.5)*%
%TF.CreationDate,2023-05-24T20:51:29+03:00*%
%TF.ProjectId,USB_MASS_STORAGE_DEVICE,5553425f-4d41-4535-935f-53544f524147,rev?*%
%TF.SameCoordinates,Original*%
%TF.FileFunction,Legend,Top*%
%TF.FilePolarity,Positive*%
%FSLAX46Y46*%
G04 Gerber Fmt 4.6, Leading zero omitted, Abs format (unit mm)*
G04 Created by KiCad (PCBNEW (6.0.5)) date 2023-05-24 20:51:29*
%MOMM*%
%LPD*%
G01*
G04 APERTURE LIST*
%ADD10C,0.050000*%
%ADD11C,0.254000*%
%ADD12C,0.200000*%
%ADD13C,0.100000*%
%ADD14C,0.120000*%
G04 APERTURE END LIST*
D10*
X134083333Y-95090476D02*
X134083333Y-94890476D01*
X134197619Y-95090476D01*
X134197619Y-94890476D01*
X134407142Y-95071428D02*
X134397619Y-95080952D01*
X134369047Y-95090476D01*
X134350000Y-95090476D01*
X134321428Y-95080952D01*
X134302380Y-95061904D01*
X134292857Y-95042857D01*
X134283333Y-95004761D01*
X134283333Y-94976190D01*
X134292857Y-94938095D01*
X134302380Y-94919047D01*
X134321428Y-94900000D01*
X134350000Y-94890476D01*
X134369047Y-94890476D01*
X134397619Y-94900000D01*
X134407142Y-94909523D01*
X134635714Y-94880952D02*
X134464285Y-95138095D01*
X134807142Y-94900000D02*
X134788095Y-94890476D01*
X134759523Y-94890476D01*
X134730952Y-94900000D01*
X134711904Y-94919047D01*
X134702380Y-94938095D01*
X134692857Y-94976190D01*
X134692857Y-95004761D01*
X134702380Y-95042857D01*
X134711904Y-95061904D01*
X134730952Y-95080952D01*
X134759523Y-95090476D01*
X134778571Y-95090476D01*
X134807142Y-95080952D01*
X134816666Y-95071428D01*
X134816666Y-95004761D01*
X134778571Y-95004761D01*
X134902380Y-95090476D02*
X134902380Y-94890476D01*
X135016666Y-95090476D01*
X135016666Y-94890476D01*
X135111904Y-95090476D02*
X135111904Y-94890476D01*
X135159523Y-94890476D01*
X135188095Y-94900000D01*
X135207142Y-94919047D01*
X135216666Y-94938095D01*
X135226190Y-94976190D01*
X135226190Y-95004761D01*
X135216666Y-95042857D01*
X135207142Y-95061904D01*
X135188095Y-95080952D01*
X135159523Y-95090476D01*
X135111904Y-95090476D01*
X134872619Y-95925000D02*
X134853571Y-95915476D01*
X134825000Y-95915476D01*
X134796428Y-95925000D01*
X134777380Y-95944047D01*
X134767857Y-95963095D01*
X134758333Y-96001190D01*
X134758333Y-96029761D01*
X134767857Y-96067857D01*
X134777380Y-96086904D01*
X134796428Y-96105952D01*
X134825000Y-96115476D01*
X134844047Y-96115476D01*
X134872619Y-96105952D01*
X134882142Y-96096428D01*
X134882142Y-96029761D01*
X134844047Y-96029761D01*
X134967857Y-96115476D02*
X134967857Y-95915476D01*
X135082142Y-96115476D01*
X135082142Y-95915476D01*
X135177380Y-96115476D02*
X135177380Y-95915476D01*
X135225000Y-95915476D01*
X135253571Y-95925000D01*
X135272619Y-95944047D01*
X135282142Y-95963095D01*
X135291666Y-96001190D01*
X135291666Y-96029761D01*
X135282142Y-96067857D01*
X135272619Y-96086904D01*
X135253571Y-96105952D01*
X135225000Y-96115476D01*
X135177380Y-96115476D01*
X134629761Y-95415476D02*
X134753571Y-95415476D01*
X134686904Y-95491666D01*
X134715476Y-95491666D01*
X134734523Y-95501190D01*
X134744047Y-95510714D01*
X134753571Y-95529761D01*
X134753571Y-95577380D01*
X134744047Y-95596428D01*
X134734523Y-95605952D01*
X134715476Y-95615476D01*
X134658333Y-95615476D01*
X134639285Y-95605952D01*
X134629761Y-95596428D01*
X134839285Y-95596428D02*
X134848809Y-95605952D01*
X134839285Y-95615476D01*
X134829761Y-95605952D01*
X134839285Y-95596428D01*
X134839285Y-95615476D01*
X134915476Y-95415476D02*
X135039285Y-95415476D01*
X134972619Y-95491666D01*
X135001190Y-95491666D01*
X135020238Y-95501190D01*
X135029761Y-95510714D01*
X135039285Y-95529761D01*
X135039285Y-95577380D01*
X135029761Y-95596428D01*
X135020238Y-95605952D01*
X135001190Y-95615476D01*
X134944047Y-95615476D01*
X134925000Y-95605952D01*
X134915476Y-95596428D01*
X135096428Y-95415476D02*
X135163095Y-95615476D01*
X135229761Y-95415476D01*
X136677380Y-99465476D02*
X136677380Y-99265476D01*
X136725000Y-99265476D01*
X136753571Y-99275000D01*
X136772619Y-99294047D01*
X136782142Y-99313095D01*
X136791666Y-99351190D01*
X136791666Y-99379761D01*
X136782142Y-99417857D01*
X136772619Y-99436904D01*
X136753571Y-99455952D01*
X136725000Y-99465476D01*
X136677380Y-99465476D01*
X136982142Y-99465476D02*
X136867857Y-99465476D01*
X136925000Y-99465476D02*
X136925000Y-99265476D01*
X136905952Y-99294047D01*
X136886904Y-99313095D01*
X136867857Y-99322619D01*
X136702380Y-98915476D02*
X136702380Y-98715476D01*
X136750000Y-98715476D01*
X136778571Y-98725000D01*
X136797619Y-98744047D01*
X136807142Y-98763095D01*
X136816666Y-98801190D01*
X136816666Y-98829761D01*
X136807142Y-98867857D01*
X136797619Y-98886904D01*
X136778571Y-98905952D01*
X136750000Y-98915476D01*
X136702380Y-98915476D01*
X136892857Y-98734523D02*
X136902380Y-98725000D01*
X136921428Y-98715476D01*
X136969047Y-98715476D01*
X136988095Y-98725000D01*
X136997619Y-98734523D01*
X137007142Y-98753571D01*
X137007142Y-98772619D01*
X136997619Y-98801190D01*
X136883333Y-98915476D01*
X137007142Y-98915476D01*
X136726049Y-92986133D02*
X136726049Y-92786133D01*
X136773669Y-92786133D01*
X136802240Y-92795657D01*
X136821288Y-92814704D01*
X136830811Y-92833752D01*
X136840335Y-92871847D01*
X136840335Y-92900418D01*
X136830811Y-92938514D01*
X136821288Y-92957561D01*
X136802240Y-92976609D01*
X136773669Y-92986133D01*
X136726049Y-92986133D01*
X137011764Y-92786133D02*
X136973669Y-92786133D01*
X136954621Y-92795657D01*
X136945097Y-92805180D01*
X136926049Y-92833752D01*
X136916526Y-92871847D01*
X136916526Y-92948037D01*
X136926049Y-92967085D01*
X136935573Y-92976609D01*
X136954621Y-92986133D01*
X136992716Y-92986133D01*
X137011764Y-92976609D01*
X137021288Y-92967085D01*
X137030811Y-92948037D01*
X137030811Y-92900418D01*
X137021288Y-92881371D01*
X137011764Y-92871847D01*
X136992716Y-92862323D01*
X136954621Y-92862323D01*
X136935573Y-92871847D01*
X136926049Y-92881371D01*
X136916526Y-92900418D01*
X136727380Y-93465476D02*
X136727380Y-93265476D01*
X136775000Y-93265476D01*
X136803571Y-93275000D01*
X136822619Y-93294047D01*
X136832142Y-93313095D01*
X136841666Y-93351190D01*
X136841666Y-93379761D01*
X136832142Y-93417857D01*
X136822619Y-93436904D01*
X136803571Y-93455952D01*
X136775000Y-93465476D01*
X136727380Y-93465476D01*
X137022619Y-93265476D02*
X136927380Y-93265476D01*
X136917857Y-93360714D01*
X136927380Y-93351190D01*
X136946428Y-93341666D01*
X136994047Y-93341666D01*
X137013095Y-93351190D01*
X137022619Y-93360714D01*
X137032142Y-93379761D01*
X137032142Y-93427380D01*
X137022619Y-93446428D01*
X137013095Y-93455952D01*
X136994047Y-93465476D01*
X136946428Y-93465476D01*
X136927380Y-93455952D01*
X136917857Y-93446428D01*
X136627380Y-100040476D02*
X136627380Y-99840476D01*
X136675000Y-99840476D01*
X136703571Y-99850000D01*
X136722619Y-99869047D01*
X136732142Y-99888095D01*
X136741666Y-99926190D01*
X136741666Y-99954761D01*
X136732142Y-99992857D01*
X136722619Y-100011904D01*
X136703571Y-100030952D01*
X136675000Y-100040476D01*
X136627380Y-100040476D01*
X136865476Y-99840476D02*
X136884523Y-99840476D01*
X136903571Y-99850000D01*
X136913095Y-99859523D01*
X136922619Y-99878571D01*
X136932142Y-99916666D01*
X136932142Y-99964285D01*
X136922619Y-100002380D01*
X136913095Y-100021428D01*
X136903571Y-100030952D01*
X136884523Y-100040476D01*
X136865476Y-100040476D01*
X136846428Y-100030952D01*
X136836904Y-100021428D01*
X136827380Y-100002380D01*
X136817857Y-99964285D01*
X136817857Y-99916666D01*
X136827380Y-99878571D01*
X136836904Y-99859523D01*
X136846428Y-99850000D01*
X136865476Y-99840476D01*
X136702380Y-98540476D02*
X136702380Y-98340476D01*
X136750000Y-98340476D01*
X136778571Y-98350000D01*
X136797619Y-98369047D01*
X136807142Y-98388095D01*
X136816666Y-98426190D01*
X136816666Y-98454761D01*
X136807142Y-98492857D01*
X136797619Y-98511904D01*
X136778571Y-98530952D01*
X136750000Y-98540476D01*
X136702380Y-98540476D01*
X136883333Y-98340476D02*
X137007142Y-98340476D01*
X136940476Y-98416666D01*
X136969047Y-98416666D01*
X136988095Y-98426190D01*
X136997619Y-98435714D01*
X137007142Y-98454761D01*
X137007142Y-98502380D01*
X136997619Y-98521428D01*
X136988095Y-98530952D01*
X136969047Y-98540476D01*
X136911904Y-98540476D01*
X136892857Y-98530952D01*
X136883333Y-98521428D01*
X136727380Y-92490476D02*
X136727380Y-92290476D01*
X136775000Y-92290476D01*
X136803571Y-92300000D01*
X136822619Y-92319047D01*
X136832142Y-92338095D01*
X136841666Y-92376190D01*
X136841666Y-92404761D01*
X136832142Y-92442857D01*
X136822619Y-92461904D01*
X136803571Y-92480952D01*
X136775000Y-92490476D01*
X136727380Y-92490476D01*
X136908333Y-92290476D02*
X137041666Y-92290476D01*
X136955952Y-92490476D01*
X136777380Y-93990476D02*
X136777380Y-93790476D01*
X136825000Y-93790476D01*
X136853571Y-93800000D01*
X136872619Y-93819047D01*
X136882142Y-93838095D01*
X136891666Y-93876190D01*
X136891666Y-93904761D01*
X136882142Y-93942857D01*
X136872619Y-93961904D01*
X136853571Y-93980952D01*
X136825000Y-93990476D01*
X136777380Y-93990476D01*
X137063095Y-93857142D02*
X137063095Y-93990476D01*
X137015476Y-93780952D02*
X136967857Y-93923809D01*
X137091666Y-93923809D01*
X145677380Y-94440476D02*
X145677380Y-94240476D01*
X145725000Y-94240476D01*
X145753571Y-94250000D01*
X145772619Y-94269047D01*
X145782142Y-94288095D01*
X145791666Y-94326190D01*
X145791666Y-94354761D01*
X145782142Y-94392857D01*
X145772619Y-94411904D01*
X145753571Y-94430952D01*
X145725000Y-94440476D01*
X145677380Y-94440476D01*
X145858333Y-94240476D02*
X145991666Y-94240476D01*
X145905952Y-94440476D01*
X145677380Y-97965476D02*
X145677380Y-97765476D01*
X145725000Y-97765476D01*
X145753571Y-97775000D01*
X145772619Y-97794047D01*
X145782142Y-97813095D01*
X145791666Y-97851190D01*
X145791666Y-97879761D01*
X145782142Y-97917857D01*
X145772619Y-97936904D01*
X145753571Y-97955952D01*
X145725000Y-97965476D01*
X145677380Y-97965476D01*
X145915476Y-97765476D02*
X145934523Y-97765476D01*
X145953571Y-97775000D01*
X145963095Y-97784523D01*
X145972619Y-97803571D01*
X145982142Y-97841666D01*
X145982142Y-97889285D01*
X145972619Y-97927380D01*
X145963095Y-97946428D01*
X145953571Y-97955952D01*
X145934523Y-97965476D01*
X145915476Y-97965476D01*
X145896428Y-97955952D01*
X145886904Y-97946428D01*
X145877380Y-97927380D01*
X145867857Y-97889285D01*
X145867857Y-97841666D01*
X145877380Y-97803571D01*
X145886904Y-97784523D01*
X145896428Y-97775000D01*
X145915476Y-97765476D01*
D11*
%TO.C,K9GAG08U0E*%
X122594285Y-96699523D02*
X122594285Y-95429523D01*
X123320000Y-96699523D02*
X122775714Y-95973809D01*
X123320000Y-95429523D02*
X122594285Y-96155238D01*
X123924761Y-96699523D02*
X124166666Y-96699523D01*
X124287619Y-96639047D01*
X124348095Y-96578571D01*
X124469047Y-96397142D01*
X124529523Y-96155238D01*
X124529523Y-95671428D01*
X124469047Y-95550476D01*
X124408571Y-95490000D01*
X124287619Y-95429523D01*
X124045714Y-95429523D01*
X123924761Y-95490000D01*
X123864285Y-95550476D01*
X123803809Y-95671428D01*
X123803809Y-95973809D01*
X123864285Y-96094761D01*
X123924761Y-96155238D01*
X124045714Y-96215714D01*
X124287619Y-96215714D01*
X124408571Y-96155238D01*
X124469047Y-96094761D01*
X124529523Y-95973809D01*
X125739047Y-95490000D02*
X125618095Y-95429523D01*
X125436666Y-95429523D01*
X125255238Y-95490000D01*
X125134285Y-95610952D01*
X125073809Y-95731904D01*
X125013333Y-95973809D01*
X125013333Y-96155238D01*
X125073809Y-96397142D01*
X125134285Y-96518095D01*
X125255238Y-96639047D01*
X125436666Y-96699523D01*
X125557619Y-96699523D01*
X125739047Y-96639047D01*
X125799523Y-96578571D01*
X125799523Y-96155238D01*
X125557619Y-96155238D01*
X126283333Y-96336666D02*
X126888095Y-96336666D01*
X126162380Y-96699523D02*
X126585714Y-95429523D01*
X127009047Y-96699523D01*
X128097619Y-95490000D02*
X127976666Y-95429523D01*
X127795238Y-95429523D01*
X127613809Y-95490000D01*
X127492857Y-95610952D01*
X127432380Y-95731904D01*
X127371904Y-95973809D01*
X127371904Y-96155238D01*
X127432380Y-96397142D01*
X127492857Y-96518095D01*
X127613809Y-96639047D01*
X127795238Y-96699523D01*
X127916190Y-96699523D01*
X128097619Y-96639047D01*
X128158095Y-96578571D01*
X128158095Y-96155238D01*
X127916190Y-96155238D01*
X128944285Y-95429523D02*
X129065238Y-95429523D01*
X129186190Y-95490000D01*
X129246666Y-95550476D01*
X129307142Y-95671428D01*
X129367619Y-95913333D01*
X129367619Y-96215714D01*
X129307142Y-96457619D01*
X129246666Y-96578571D01*
X129186190Y-96639047D01*
X129065238Y-96699523D01*
X128944285Y-96699523D01*
X128823333Y-96639047D01*
X128762857Y-96578571D01*
X128702380Y-96457619D01*
X128641904Y-96215714D01*
X128641904Y-95913333D01*
X128702380Y-95671428D01*
X128762857Y-95550476D01*
X128823333Y-95490000D01*
X128944285Y-95429523D01*
X130093333Y-95973809D02*
X129972380Y-95913333D01*
X129911904Y-95852857D01*
X129851428Y-95731904D01*
X129851428Y-95671428D01*
X129911904Y-95550476D01*
X129972380Y-95490000D01*
X130093333Y-95429523D01*
X130335238Y-95429523D01*
X130456190Y-95490000D01*
X130516666Y-95550476D01*
X130577142Y-95671428D01*
X130577142Y-95731904D01*
X130516666Y-95852857D01*
X130456190Y-95913333D01*
X130335238Y-95973809D01*
X130093333Y-95973809D01*
X129972380Y-96034285D01*
X129911904Y-96094761D01*
X129851428Y-96215714D01*
X129851428Y-96457619D01*
X129911904Y-96578571D01*
X129972380Y-96639047D01*
X130093333Y-96699523D01*
X130335238Y-96699523D01*
X130456190Y-96639047D01*
X130516666Y-96578571D01*
X130577142Y-96457619D01*
X130577142Y-96215714D01*
X130516666Y-96094761D01*
X130456190Y-96034285D01*
X130335238Y-95973809D01*
X131121428Y-95429523D02*
X131121428Y-96457619D01*
X131181904Y-96578571D01*
X131242380Y-96639047D01*
X131363333Y-96699523D01*
X131605238Y-96699523D01*
X131726190Y-96639047D01*
X131786666Y-96578571D01*
X131847142Y-96457619D01*
X131847142Y-95429523D01*
X132693809Y-95429523D02*
X132814761Y-95429523D01*
X132935714Y-95490000D01*
X132996190Y-95550476D01*
X133056666Y-95671428D01*
X133117142Y-95913333D01*
X133117142Y-96215714D01*
X133056666Y-96457619D01*
X132996190Y-96578571D01*
X132935714Y-96639047D01*
X132814761Y-96699523D01*
X132693809Y-96699523D01*
X132572857Y-96639047D01*
X132512380Y-96578571D01*
X132451904Y-96457619D01*
X132391428Y-96215714D01*
X132391428Y-95913333D01*
X132451904Y-95671428D01*
X132512380Y-95550476D01*
X132572857Y-95490000D01*
X132693809Y-95429523D01*
X133661428Y-96034285D02*
X134084761Y-96034285D01*
X134266190Y-96699523D02*
X133661428Y-96699523D01*
X133661428Y-95429523D01*
X134266190Y-95429523D01*
D12*
%TO.C,ST72681*%
X147021717Y-98850702D02*
X147146302Y-98793460D01*
X147297825Y-98641937D01*
X147324762Y-98547657D01*
X147321395Y-98483680D01*
X147284356Y-98386032D01*
X147217013Y-98318689D01*
X147119365Y-98281650D01*
X147055388Y-98278282D01*
X146961107Y-98305220D01*
X146806217Y-98392766D01*
X146711936Y-98419704D01*
X146647960Y-98416337D01*
X146550312Y-98379298D01*
X146482968Y-98311954D01*
X146445930Y-98214306D01*
X146442562Y-98150330D01*
X146469500Y-98056049D01*
X146621023Y-97904526D01*
X146745608Y-97847284D01*
X146893764Y-97631785D02*
X147257419Y-97268130D01*
X147782698Y-98157064D02*
X147075591Y-97449957D01*
X147408942Y-97116607D02*
X147833206Y-96692343D01*
X148267571Y-97672191D01*
X148112681Y-96547554D02*
X148109314Y-96483578D01*
X148136251Y-96389297D01*
X148287774Y-96237774D01*
X148382055Y-96210837D01*
X148446032Y-96214204D01*
X148543680Y-96251243D01*
X148611023Y-96318587D01*
X148681734Y-96449906D01*
X148722140Y-97217622D01*
X149116099Y-96823663D01*
X148954475Y-95571074D02*
X148833257Y-95692292D01*
X148806319Y-95786573D01*
X148809687Y-95850549D01*
X148850093Y-96012174D01*
X148954475Y-96177165D01*
X149223849Y-96446539D01*
X149321497Y-96483578D01*
X149385473Y-96486945D01*
X149479754Y-96460008D01*
X149600973Y-96338790D01*
X149627910Y-96244509D01*
X149624543Y-96180532D01*
X149587504Y-96082884D01*
X149419145Y-95914526D01*
X149321497Y-95877487D01*
X149257521Y-95874119D01*
X149163240Y-95901057D01*
X149042022Y-96022275D01*
X149015084Y-96116556D01*
X149018451Y-96180532D01*
X149055490Y-96278180D01*
X149681785Y-95449855D02*
X149587504Y-95476793D01*
X149523528Y-95473426D01*
X149425880Y-95436387D01*
X149392208Y-95402715D01*
X149355169Y-95305067D01*
X149351802Y-95241091D01*
X149378739Y-95146810D01*
X149499957Y-95025591D01*
X149594238Y-94998654D01*
X149658215Y-95002021D01*
X149755863Y-95039060D01*
X149789534Y-95072732D01*
X149826573Y-95170380D01*
X149829941Y-95234356D01*
X149803003Y-95328637D01*
X149681785Y-95449855D01*
X149654847Y-95544136D01*
X149658215Y-95608113D01*
X149695254Y-95705761D01*
X149829941Y-95840448D01*
X149927589Y-95877487D01*
X149991565Y-95880854D01*
X150085846Y-95853916D01*
X150207064Y-95732698D01*
X150234002Y-95638417D01*
X150230634Y-95574441D01*
X150193595Y-95476793D01*
X150058908Y-95342106D01*
X149961260Y-95305067D01*
X149897284Y-95301700D01*
X149803003Y-95328637D01*
X150934374Y-95005388D02*
X150570719Y-95369043D01*
X150752547Y-95187216D02*
X150045440Y-94480109D01*
X150085846Y-94641733D01*
X150092580Y-94769686D01*
X150065643Y-94863967D01*
D13*
%TO.C,100nF*%
X141905952Y-96669047D02*
X141905952Y-96897619D01*
X141905952Y-96783333D02*
X141505952Y-96783333D01*
X141563095Y-96821428D01*
X141601190Y-96859523D01*
X141620238Y-96897619D01*
X141505952Y-96421428D02*
X141505952Y-96383333D01*
X141525000Y-96345238D01*
X141544047Y-96326190D01*
X141582142Y-96307142D01*
X141658333Y-96288095D01*
X141753571Y-96288095D01*
X141829761Y-96307142D01*
X141867857Y-96326190D01*
X141886904Y-96345238D01*
X141905952Y-96383333D01*
X141905952Y-96421428D01*
X141886904Y-96459523D01*
X141867857Y-96478571D01*
X141829761Y-96497619D01*
X141753571Y-96516666D01*
X141658333Y-96516666D01*
X141582142Y-96497619D01*
X141544047Y-96478571D01*
X141525000Y-96459523D01*
X141505952Y-96421428D01*
X141505952Y-96040476D02*
X141505952Y-96002380D01*
X141525000Y-95964285D01*
X141544047Y-95945238D01*
X141582142Y-95926190D01*
X141658333Y-95907142D01*
X141753571Y-95907142D01*
X141829761Y-95926190D01*
X141867857Y-95945238D01*
X141886904Y-95964285D01*
X141905952Y-96002380D01*
X141905952Y-96040476D01*
X141886904Y-96078571D01*
X141867857Y-96097619D01*
X141829761Y-96116666D01*
X141753571Y-96135714D01*
X141658333Y-96135714D01*
X141582142Y-96116666D01*
X141544047Y-96097619D01*
X141525000Y-96078571D01*
X141505952Y-96040476D01*
X141639285Y-95735714D02*
X141905952Y-95735714D01*
X141677380Y-95735714D02*
X141658333Y-95716666D01*
X141639285Y-95678571D01*
X141639285Y-95621428D01*
X141658333Y-95583333D01*
X141696428Y-95564285D01*
X141905952Y-95564285D01*
X141696428Y-95240476D02*
X141696428Y-95373809D01*
X141905952Y-95373809D02*
X141505952Y-95373809D01*
X141505952Y-95183333D01*
D12*
%TO.C,K9GAG08U0E*%
X117925000Y-89875000D02*
X119200000Y-89875000D01*
X119550000Y-102125000D02*
X119550000Y-90125000D01*
X137250000Y-102125000D02*
X119550000Y-102125000D01*
X137250000Y-90125000D02*
X137250000Y-102125000D01*
X119550000Y-90125000D02*
X137250000Y-90125000D01*
D14*
%TO.C,REF\u002A\u002A*%
X166100000Y-89680000D02*
X167150000Y-89680000D01*
X162930000Y-91425000D02*
X162930000Y-100225000D01*
X162930000Y-91425000D02*
X162175000Y-91425000D01*
X166100000Y-101970000D02*
X167150000Y-101970000D01*
D11*
%TO.C,ST72681*%
X145300000Y-101350000D02*
G75*
G03*
X145300000Y-101350000I-125000J0D01*
G01*
D12*
X151825000Y-99775000D02*
X145525000Y-99775000D01*
X151825000Y-93475000D02*
X151825000Y-99775000D01*
X145525000Y-93475000D02*
X151825000Y-93475000D01*
X145525000Y-99775000D02*
X145525000Y-93475000D01*
D14*
%TO.C,100nF*%
X141110000Y-96386252D02*
X141110000Y-95863748D01*
X139640000Y-96386252D02*
X139640000Y-95863748D01*
%TD*%
M02*
