%TF.GenerationSoftware,KiCad,Pcbnew,(6.0.5)*%
%TF.CreationDate,2023-05-24T20:51:29+03:00*%
%TF.ProjectId,USB_MASS_STORAGE_DEVICE,5553425f-4d41-4535-935f-53544f524147,rev?*%
%TF.SameCoordinates,Original*%
%TF.FileFunction,Legend,Bot*%
%TF.FilePolarity,Positive*%
%FSLAX46Y46*%
G04 Gerber Fmt 4.6, Leading zero omitted, Abs format (unit mm)*
G04 Created by KiCad (PCBNEW (6.0.5)) date 2023-05-24 20:51:29*
%MOMM*%
%LPD*%
G01*
G04 APERTURE LIST*
%ADD10C,0.254000*%
%ADD11C,0.200000*%
G04 APERTURE END LIST*
D10*
%TO.C,K9GAG08U0E*%
X134205714Y-96699523D02*
X134205714Y-95429523D01*
X133480000Y-96699523D02*
X134024285Y-95973809D01*
X133480000Y-95429523D02*
X134205714Y-96155238D01*
X132875238Y-96699523D02*
X132633333Y-96699523D01*
X132512380Y-96639047D01*
X132451904Y-96578571D01*
X132330952Y-96397142D01*
X132270476Y-96155238D01*
X132270476Y-95671428D01*
X132330952Y-95550476D01*
X132391428Y-95490000D01*
X132512380Y-95429523D01*
X132754285Y-95429523D01*
X132875238Y-95490000D01*
X132935714Y-95550476D01*
X132996190Y-95671428D01*
X132996190Y-95973809D01*
X132935714Y-96094761D01*
X132875238Y-96155238D01*
X132754285Y-96215714D01*
X132512380Y-96215714D01*
X132391428Y-96155238D01*
X132330952Y-96094761D01*
X132270476Y-95973809D01*
X131060952Y-95490000D02*
X131181904Y-95429523D01*
X131363333Y-95429523D01*
X131544761Y-95490000D01*
X131665714Y-95610952D01*
X131726190Y-95731904D01*
X131786666Y-95973809D01*
X131786666Y-96155238D01*
X131726190Y-96397142D01*
X131665714Y-96518095D01*
X131544761Y-96639047D01*
X131363333Y-96699523D01*
X131242380Y-96699523D01*
X131060952Y-96639047D01*
X131000476Y-96578571D01*
X131000476Y-96155238D01*
X131242380Y-96155238D01*
X130516666Y-96336666D02*
X129911904Y-96336666D01*
X130637619Y-96699523D02*
X130214285Y-95429523D01*
X129790952Y-96699523D01*
X128702380Y-95490000D02*
X128823333Y-95429523D01*
X129004761Y-95429523D01*
X129186190Y-95490000D01*
X129307142Y-95610952D01*
X129367619Y-95731904D01*
X129428095Y-95973809D01*
X129428095Y-96155238D01*
X129367619Y-96397142D01*
X129307142Y-96518095D01*
X129186190Y-96639047D01*
X129004761Y-96699523D01*
X128883809Y-96699523D01*
X128702380Y-96639047D01*
X128641904Y-96578571D01*
X128641904Y-96155238D01*
X128883809Y-96155238D01*
X127855714Y-95429523D02*
X127734761Y-95429523D01*
X127613809Y-95490000D01*
X127553333Y-95550476D01*
X127492857Y-95671428D01*
X127432380Y-95913333D01*
X127432380Y-96215714D01*
X127492857Y-96457619D01*
X127553333Y-96578571D01*
X127613809Y-96639047D01*
X127734761Y-96699523D01*
X127855714Y-96699523D01*
X127976666Y-96639047D01*
X128037142Y-96578571D01*
X128097619Y-96457619D01*
X128158095Y-96215714D01*
X128158095Y-95913333D01*
X128097619Y-95671428D01*
X128037142Y-95550476D01*
X127976666Y-95490000D01*
X127855714Y-95429523D01*
X126706666Y-95973809D02*
X126827619Y-95913333D01*
X126888095Y-95852857D01*
X126948571Y-95731904D01*
X126948571Y-95671428D01*
X126888095Y-95550476D01*
X126827619Y-95490000D01*
X126706666Y-95429523D01*
X126464761Y-95429523D01*
X126343809Y-95490000D01*
X126283333Y-95550476D01*
X126222857Y-95671428D01*
X126222857Y-95731904D01*
X126283333Y-95852857D01*
X126343809Y-95913333D01*
X126464761Y-95973809D01*
X126706666Y-95973809D01*
X126827619Y-96034285D01*
X126888095Y-96094761D01*
X126948571Y-96215714D01*
X126948571Y-96457619D01*
X126888095Y-96578571D01*
X126827619Y-96639047D01*
X126706666Y-96699523D01*
X126464761Y-96699523D01*
X126343809Y-96639047D01*
X126283333Y-96578571D01*
X126222857Y-96457619D01*
X126222857Y-96215714D01*
X126283333Y-96094761D01*
X126343809Y-96034285D01*
X126464761Y-95973809D01*
X125678571Y-95429523D02*
X125678571Y-96457619D01*
X125618095Y-96578571D01*
X125557619Y-96639047D01*
X125436666Y-96699523D01*
X125194761Y-96699523D01*
X125073809Y-96639047D01*
X125013333Y-96578571D01*
X124952857Y-96457619D01*
X124952857Y-95429523D01*
X124106190Y-95429523D02*
X123985238Y-95429523D01*
X123864285Y-95490000D01*
X123803809Y-95550476D01*
X123743333Y-95671428D01*
X123682857Y-95913333D01*
X123682857Y-96215714D01*
X123743333Y-96457619D01*
X123803809Y-96578571D01*
X123864285Y-96639047D01*
X123985238Y-96699523D01*
X124106190Y-96699523D01*
X124227142Y-96639047D01*
X124287619Y-96578571D01*
X124348095Y-96457619D01*
X124408571Y-96215714D01*
X124408571Y-95913333D01*
X124348095Y-95671428D01*
X124287619Y-95550476D01*
X124227142Y-95490000D01*
X124106190Y-95429523D01*
X123138571Y-96034285D02*
X122715238Y-96034285D01*
X122533809Y-96699523D02*
X123138571Y-96699523D01*
X123138571Y-95429523D01*
X122533809Y-95429523D01*
D11*
X119550000Y-90125000D02*
X119550000Y-102125000D01*
X117925000Y-102375000D02*
X119200000Y-102375000D01*
X119550000Y-102125000D02*
X137250000Y-102125000D01*
X137250000Y-102125000D02*
X137250000Y-90125000D01*
X137250000Y-90125000D02*
X119550000Y-90125000D01*
%TD*%
M02*
