%TF.GenerationSoftware,KiCad,Pcbnew,(6.0.5)*%
%TF.CreationDate,2023-05-24T20:51:29+03:00*%
%TF.ProjectId,USB_MASS_STORAGE_DEVICE,5553425f-4d41-4535-935f-53544f524147,rev?*%
%TF.SameCoordinates,Original*%
%TF.FileFunction,Paste,Bot*%
%TF.FilePolarity,Positive*%
%FSLAX46Y46*%
G04 Gerber Fmt 4.6, Leading zero omitted, Abs format (unit mm)*
G04 Created by KiCad (PCBNEW (6.0.5)) date 2023-05-24 20:51:29*
%MOMM*%
%LPD*%
G01*
G04 APERTURE LIST*
%ADD10R,1.275000X0.300000*%
G04 APERTURE END LIST*
D10*
%TO.C,K9GAG08U0E*%
X118562000Y-101875000D03*
X118562000Y-101375000D03*
X118562000Y-100875000D03*
X118562000Y-100375000D03*
X118562000Y-99875000D03*
X118562000Y-99375000D03*
X118562000Y-98875000D03*
X118562000Y-98375000D03*
X118562000Y-97875000D03*
X118562000Y-97375000D03*
X118562000Y-96875000D03*
X118562000Y-96375000D03*
X118562000Y-95875000D03*
X118562000Y-95375000D03*
X118562000Y-94875000D03*
X118562000Y-94375000D03*
X118562000Y-93875000D03*
X118562000Y-93375000D03*
X118562000Y-92875000D03*
X118562000Y-92375000D03*
X118562000Y-91875000D03*
X118562000Y-91375000D03*
X118562000Y-90875000D03*
X118562000Y-90375000D03*
X138238000Y-90375000D03*
X138238000Y-90875000D03*
X138238000Y-91375000D03*
X138238000Y-91875000D03*
X138238000Y-92375000D03*
X138238000Y-92875000D03*
X138238000Y-93375000D03*
X138238000Y-93875000D03*
X138238000Y-94375000D03*
X138238000Y-94875000D03*
X138238000Y-95375000D03*
X138238000Y-95875000D03*
X138238000Y-96375000D03*
X138238000Y-96875000D03*
X138238000Y-97375000D03*
X138238000Y-97875000D03*
X138238000Y-98375000D03*
X138238000Y-98875000D03*
X138238000Y-99375000D03*
X138238000Y-99875000D03*
X138238000Y-100375000D03*
X138238000Y-100875000D03*
X138238000Y-101375000D03*
X138238000Y-101875000D03*
%TD*%
M02*
