%TF.GenerationSoftware,KiCad,Pcbnew,(6.0.5)*%
%TF.CreationDate,2023-05-24T20:51:29+03:00*%
%TF.ProjectId,USB_MASS_STORAGE_DEVICE,5553425f-4d41-4535-935f-53544f524147,rev?*%
%TF.SameCoordinates,Original*%
%TF.FileFunction,Paste,Top*%
%TF.FilePolarity,Positive*%
%FSLAX46Y46*%
G04 Gerber Fmt 4.6, Leading zero omitted, Abs format (unit mm)*
G04 Created by KiCad (PCBNEW (6.0.5)) date 2023-05-24 20:51:29*
%MOMM*%
%LPD*%
G01*
G04 APERTURE LIST*
G04 Aperture macros list*
%AMRoundRect*
0 Rectangle with rounded corners*
0 $1 Rounding radius*
0 $2 $3 $4 $5 $6 $7 $8 $9 X,Y pos of 4 corners*
0 Add a 4 corners polygon primitive as box body*
4,1,4,$2,$3,$4,$5,$6,$7,$8,$9,$2,$3,0*
0 Add four circle primitives for the rounded corners*
1,1,$1+$1,$2,$3*
1,1,$1+$1,$4,$5*
1,1,$1+$1,$6,$7*
1,1,$1+$1,$8,$9*
0 Add four rect primitives between the rounded corners*
20,1,$1+$1,$2,$3,$4,$5,0*
20,1,$1+$1,$4,$5,$6,$7,0*
20,1,$1+$1,$6,$7,$8,$9,0*
20,1,$1+$1,$8,$9,$2,$3,0*%
G04 Aperture macros list end*
%ADD10R,1.275000X0.300000*%
%ADD11R,2.500000X1.100000*%
%ADD12R,1.475000X0.300000*%
%ADD13R,0.300000X1.475000*%
%ADD14RoundRect,0.250000X0.475000X-0.337500X0.475000X0.337500X-0.475000X0.337500X-0.475000X-0.337500X0*%
G04 APERTURE END LIST*
D10*
%TO.C,K9GAG08U0E*%
X138238000Y-90375000D03*
X138238000Y-90875000D03*
X138238000Y-91375000D03*
X138238000Y-91875000D03*
X138238000Y-92375000D03*
X138238000Y-92875000D03*
X138238000Y-93375000D03*
X138238000Y-93875000D03*
X138238000Y-94375000D03*
X138238000Y-94875000D03*
X138238000Y-95375000D03*
X138238000Y-95875000D03*
X138238000Y-96375000D03*
X138238000Y-96875000D03*
X138238000Y-97375000D03*
X138238000Y-97875000D03*
X138238000Y-98375000D03*
X138238000Y-98875000D03*
X138238000Y-99375000D03*
X138238000Y-99875000D03*
X138238000Y-100375000D03*
X138238000Y-100875000D03*
X138238000Y-101375000D03*
X138238000Y-101875000D03*
X118562000Y-101875000D03*
X118562000Y-101375000D03*
X118562000Y-100875000D03*
X118562000Y-100375000D03*
X118562000Y-99875000D03*
X118562000Y-99375000D03*
X118562000Y-98875000D03*
X118562000Y-98375000D03*
X118562000Y-97875000D03*
X118562000Y-97375000D03*
X118562000Y-96875000D03*
X118562000Y-96375000D03*
X118562000Y-95875000D03*
X118562000Y-95375000D03*
X118562000Y-94875000D03*
X118562000Y-94375000D03*
X118562000Y-93875000D03*
X118562000Y-93375000D03*
X118562000Y-92875000D03*
X118562000Y-92375000D03*
X118562000Y-91875000D03*
X118562000Y-91375000D03*
X118562000Y-90875000D03*
X118562000Y-90375000D03*
%TD*%
D11*
%TO.C,REF\u002A\u002A*%
X161300000Y-92325000D03*
X161300000Y-94825000D03*
X161300000Y-96825000D03*
X161300000Y-99325000D03*
%TD*%
D12*
%TO.C,ST72681*%
X144437000Y-99375000D03*
X144437000Y-98875000D03*
X144437000Y-98375000D03*
X144437000Y-97875000D03*
X144437000Y-97375000D03*
X144437000Y-96875000D03*
X144437000Y-96375000D03*
X144437000Y-95875000D03*
X144437000Y-95375000D03*
X144437000Y-94875000D03*
X144437000Y-94375000D03*
X144437000Y-93875000D03*
D13*
X145925000Y-92387000D03*
X146425000Y-92387000D03*
X146925000Y-92387000D03*
X147425000Y-92387000D03*
X147925000Y-92387000D03*
X148425000Y-92387000D03*
X148925000Y-92387000D03*
X149425000Y-92387000D03*
X149925000Y-92387000D03*
X150425000Y-92387000D03*
X150925000Y-92387000D03*
X151425000Y-92387000D03*
D12*
X152913000Y-93875000D03*
X152913000Y-94375000D03*
X152913000Y-94875000D03*
X152913000Y-95375000D03*
X152913000Y-95875000D03*
X152913000Y-96375000D03*
X152913000Y-96875000D03*
X152913000Y-97375000D03*
X152913000Y-97875000D03*
X152913000Y-98375000D03*
X152913000Y-98875000D03*
X152913000Y-99375000D03*
D13*
X151425000Y-100863000D03*
X150925000Y-100863000D03*
X150425000Y-100863000D03*
X149925000Y-100863000D03*
X149425000Y-100863000D03*
X148925000Y-100863000D03*
X148425000Y-100863000D03*
X147925000Y-100863000D03*
X147425000Y-100863000D03*
X146925000Y-100863000D03*
X146425000Y-100863000D03*
X145925000Y-100863000D03*
%TD*%
D14*
%TO.C,100nF*%
X140375000Y-95087500D03*
X140375000Y-97162500D03*
%TD*%
M02*
